<svg id="logo" xmlns="http://www.w3.org/2000/svg" viewBox="0 0 493.49 81.04"><defs><style>.cls-1{fill:#595757;}.cls-2{fill:#e41e26;}</style></defs><title>logo-movus-grey</title><path class="cls-1" d="M59,13.54V87.22H84.64v-44s3.36-14.37,11.62-11c0,0,8.87-3.37,12.23,10.39V87.22h26.6V42.58s4.58-12.23,11-10.09c0,0,11.62-.91,11.62,9.48V87.22h26.6V32.49s-2.14-21.4-26.29-21.4c0,0-16.51,1.84-23.54,14.06A34.49,34.49,0,0,0,107,11.09s-8.87-2.44-22.32,11l-.3-8.56Z" transform="translate(-58.96 -10.49)"/><path class="cls-2" d="M208.46,78.35l18.65-19.87S219.78,48.39,230.17,38c0,0,5.5-8.57,20.18-1.53l17.73-18S237.51-.22,210.91,21.49c0,0-21.71,15-11.31,44.94C199.6,66.43,202.65,74.68,208.46,78.35Z" transform="translate(-58.96 -10.49)"/><path class="cls-2" d="M216.11,85.69l18.34-19s27.21,8.14,22.93-22.07L277,24.85s22.62,27.21,0,52C277,76.82,258,102.81,216.11,85.69Z" transform="translate(-58.96 -10.49)"/><polygon class="cls-1" points="230.52 3.04 267.82 76.73 285.55 76.73 324.08 3.04 295.03 3.04 277.3 38.58 260.18 3.04 230.52 3.04"/><path class="cls-1" d="M395,13.54V66.12s1.22,20.79,27.82,22.32c0,0,26.6,5.2,40.66-6.11,0,0,11.93-5.81,11-27.82l.05-41H447.85l.31,40.66s1.58,13.45-13.43,14.06c0,0-11,.34-13.17-10.07l.3-44.65Z" transform="translate(-58.96 -10.49)"/><path class="cls-1" d="M487.6,81.1l9.78-17.42s21.71,12.53,27.21,3.67c0,0,7-4.56-7.64-9.16,0,0-21.71-5-23.24-13.53,0,0-8.86-26.77,22.63-33.68,0,0,23.84-2.64,33.32,4.39l-7.95,16.82s-18.34-10.09-23.08,1.22c0,0-.15,7,16.66,7.64,0,0,16.82,5.84,16.82,17.14,0,0,3.67,15.27-12.84,26.58C539.27,84.77,521.53,97.92,487.6,81.1Z" transform="translate(-58.96 -10.49)"/></svg>